<svg xmlns="http://www.w3.org/2000/svg" xmlns:xlink="http://www.w3.org/1999/xlink" width="500" zoomAndPan="magnify" viewBox="0 0 375 374.999991" height="500" preserveAspectRatio="xMidYMid meet" version="1.0"><defs><g/><clipPath id="da7a01efad"><path d="M 117.550781 141 L 213 141 L 213 231.570312 L 117.550781 231.570312 Z M 117.550781 141 " clip-rule="nonzero"/></clipPath><clipPath id="b5294ccd06"><path d="M 161 91.683594 L 257.4375 91.683594 L 257.4375 171 L 161 171 Z M 161 91.683594 " clip-rule="nonzero"/></clipPath></defs><g clip-path="url(#da7a01efad)"><path fill="#ffffff" d="M 207.328125 199.773438 C 205.296875 197.742188 203.429688 195.574219 201.71875 193.269531 L 201.71875 206.667969 C 201.734375 207.613281 201.660156 208.554688 201.492188 209.484375 C 201.324219 210.414062 201.066406 211.320312 200.71875 212.199219 C 200.371094 213.082031 199.9375 213.917969 199.421875 214.710938 C 198.90625 215.503906 198.316406 216.238281 197.65625 216.914062 C 196.992188 217.589844 196.269531 218.191406 195.488281 218.722656 C 194.703125 219.257812 193.878906 219.703125 193.003906 220.070312 C 192.132812 220.4375 191.234375 220.714844 190.304688 220.902344 C 189.378906 221.089844 188.441406 221.183594 187.496094 221.183594 C 186.550781 221.183594 185.613281 221.089844 184.683594 220.902344 C 183.757812 220.714844 182.855469 220.4375 181.984375 220.070312 C 181.113281 219.703125 180.285156 219.257812 179.503906 218.722656 C 178.71875 218.191406 177.996094 217.589844 177.335938 216.914062 C 176.671875 216.238281 176.085938 215.503906 175.570312 214.710938 C 175.054688 213.917969 174.621094 213.082031 174.273438 212.199219 C 173.921875 211.320312 173.664062 210.414062 173.496094 209.484375 C 173.328125 208.554688 173.253906 207.613281 173.273438 206.667969 L 173.273438 175.847656 L 142.464844 175.847656 C 141.714844 175.847656 140.972656 175.789062 140.234375 175.671875 C 139.496094 175.554688 138.773438 175.382812 138.0625 175.152344 C 137.351562 174.917969 136.660156 174.632812 135.996094 174.292969 C 135.332031 173.953125 134.695312 173.5625 134.089844 173.125 C 133.488281 172.683594 132.921875 172.199219 132.394531 171.671875 C 131.867188 171.140625 131.382812 170.574219 130.945312 169.96875 C 130.507812 169.363281 130.117188 168.726562 129.78125 168.058594 C 129.441406 167.390625 129.160156 166.703125 128.929688 165.992188 C 128.699219 165.28125 128.527344 164.554688 128.414062 163.816406 C 128.300781 163.078125 128.242188 162.335938 128.246094 161.585938 C 128.246094 160.839844 128.308594 160.097656 128.429688 159.359375 C 128.546875 158.621094 128.726562 157.898438 128.960938 157.1875 C 129.191406 156.476562 129.480469 155.789062 129.824219 155.125 C 130.164062 154.460938 130.558594 153.828125 131 153.226562 C 131.441406 152.621094 131.929688 152.058594 132.460938 151.53125 C 132.992188 151.007812 133.5625 150.527344 134.167969 150.089844 L 135.246094 149.316406 C 133.855469 148.15625 132.5625 146.898438 131.367188 145.539062 C 130.097656 144.097656 128.914062 142.59375 127.808594 141.027344 L 127.285156 141.414062 C 126.230469 142.207031 125.242188 143.074219 124.324219 144.023438 C 123.40625 144.96875 122.570312 145.980469 121.808594 147.054688 C 121.050781 148.132812 120.378906 149.261719 119.796875 150.445312 C 119.210938 151.625 118.726562 152.847656 118.332031 154.105469 C 117.941406 155.363281 117.648438 156.644531 117.457031 157.945312 C 117.265625 159.25 117.175781 160.5625 117.1875 161.878906 C 117.199219 163.199219 117.316406 164.507812 117.535156 165.804688 C 117.75 167.105469 118.070312 168.382812 118.484375 169.632812 C 118.902344 170.882812 119.414062 172.089844 120.023438 173.261719 C 120.628906 174.429688 121.320312 175.546875 122.101562 176.609375 C 122.882812 177.671875 123.742188 178.664062 124.679688 179.59375 C 125.613281 180.519531 126.617188 181.367188 127.6875 182.140625 C 128.757812 182.910156 129.878906 183.59375 131.054688 184.1875 C 132.230469 184.78125 133.445312 185.28125 134.699219 185.6875 C 135.953125 186.09375 137.230469 186.398438 138.535156 186.601562 C 139.835938 186.808594 141.144531 186.910156 142.464844 186.910156 L 162.210938 186.910156 L 162.210938 206.644531 C 162.199219 207.480469 162.226562 208.316406 162.296875 209.148438 C 162.367188 209.984375 162.476562 210.8125 162.628906 211.632812 C 162.78125 212.457031 162.976562 213.269531 163.207031 214.070312 C 163.441406 214.875 163.714844 215.664062 164.023438 216.441406 C 164.335938 217.214844 164.683594 217.976562 165.070312 218.714844 C 165.457031 219.457031 165.878906 220.179688 166.335938 220.878906 C 166.796875 221.578125 167.285156 222.253906 167.8125 222.902344 C 168.335938 223.554688 168.890625 224.179688 169.480469 224.773438 C 170.066406 225.371094 170.679688 225.933594 171.324219 226.46875 C 171.964844 227.003906 172.632812 227.507812 173.328125 227.976562 C 174.019531 228.441406 174.734375 228.875 175.46875 229.273438 C 176.203125 229.671875 176.957031 230.03125 177.730469 230.355469 C 178.5 230.679688 179.285156 230.960938 180.085938 231.207031 C 180.886719 231.453125 181.695312 231.65625 182.515625 231.820312 C 183.335938 231.984375 184.160156 232.109375 184.992188 232.191406 C 185.824219 232.277344 186.660156 232.316406 187.496094 232.316406 C 188.332031 232.316406 189.164062 232.277344 189.996094 232.191406 C 190.828125 232.109375 191.65625 231.984375 192.476562 231.820312 C 193.296875 231.65625 194.105469 231.453125 194.90625 231.207031 C 195.703125 230.960938 196.488281 230.679688 197.261719 230.355469 C 198.03125 230.03125 198.785156 229.671875 199.519531 229.273438 C 200.257812 228.875 200.96875 228.441406 201.664062 227.976562 C 202.355469 227.507812 203.023438 227.003906 203.667969 226.46875 C 204.308594 225.933594 204.925781 225.371094 205.511719 224.773438 C 206.097656 224.179688 206.652344 223.554688 207.179688 222.902344 C 207.703125 222.253906 208.195312 221.578125 208.652344 220.878906 C 209.109375 220.179688 209.53125 219.457031 209.917969 218.714844 C 210.304688 217.976562 210.65625 217.214844 210.964844 216.441406 C 211.277344 215.664062 211.550781 214.875 211.78125 214.070312 C 212.015625 213.269531 212.207031 212.457031 212.359375 211.632812 C 212.511719 210.8125 212.621094 209.984375 212.691406 209.148438 C 212.761719 208.316406 212.792969 207.480469 212.777344 206.644531 L 212.777344 204.375 C 210.835938 202.992188 209.015625 201.457031 207.328125 199.773438 Z M 207.328125 199.773438 " fill-opacity="1" fill-rule="nonzero"/></g><g clip-path="url(#b5294ccd06)"><path fill="#ffffff" d="M 164.597656 141.21875 C 163.757812 143.179688 162.59375 144.929688 161.105469 146.460938 L 161.472656 147.292969 L 161.472656 147.378906 L 173.273438 147.378906 L 173.273438 116.59375 C 173.292969 115.671875 173.398438 114.761719 173.59375 113.859375 C 173.789062 112.960938 174.070312 112.085938 174.4375 111.238281 C 174.800781 110.394531 175.246094 109.589844 175.769531 108.832031 C 176.289062 108.070312 176.878906 107.367188 177.539062 106.722656 C 178.195312 106.078125 178.910156 105.5 179.683594 104.996094 C 180.453125 104.488281 181.265625 104.0625 182.117188 103.714844 C 182.972656 103.363281 183.851562 103.101562 184.753906 102.925781 C 185.660156 102.746094 186.574219 102.65625 187.496094 102.65625 C 188.417969 102.65625 189.332031 102.746094 190.234375 102.925781 C 191.140625 103.101562 192.019531 103.363281 192.871094 103.714844 C 193.726562 104.0625 194.539062 104.488281 195.308594 104.996094 C 196.078125 105.5 196.792969 106.078125 197.453125 106.722656 C 198.109375 107.367188 198.699219 108.070312 199.222656 108.832031 C 199.742188 109.589844 200.1875 110.394531 200.554688 111.238281 C 200.917969 112.085938 201.199219 112.960938 201.394531 113.859375 C 201.589844 114.761719 201.699219 115.671875 201.71875 116.59375 L 201.71875 147.402344 L 207.007812 147.402344 C 207.875 146.984375 208.78125 146.664062 209.726562 146.449219 C 210.667969 146.230469 211.621094 146.125 212.589844 146.125 C 213.558594 146.125 214.511719 146.230469 215.453125 146.449219 C 216.394531 146.664062 217.304688 146.984375 218.171875 147.402344 L 232.515625 147.402344 C 233.449219 147.40625 234.371094 147.496094 235.289062 147.679688 C 236.203125 147.863281 237.089844 148.132812 237.953125 148.492188 C 238.816406 148.847656 239.632812 149.285156 240.410156 149.804688 C 241.1875 150.324219 241.902344 150.914062 242.5625 151.574219 C 243.222656 152.234375 243.8125 152.953125 244.332031 153.726562 C 244.851562 154.503906 245.289062 155.324219 245.648438 156.183594 C 246.003906 157.046875 246.273438 157.933594 246.457031 158.851562 C 246.640625 159.765625 246.734375 160.691406 246.734375 161.625 C 246.734375 162.488281 246.652344 163.347656 246.496094 164.199219 C 250.507812 164.996094 253.875 166.570312 255.863281 170.09375 C 255.964844 170.28125 256.054688 170.472656 256.148438 170.675781 L 256.519531 169.558594 C 256.832031 168.609375 257.089844 167.648438 257.289062 166.671875 C 257.484375 165.695312 257.625 164.710938 257.710938 163.71875 C 257.792969 162.726562 257.816406 161.730469 257.78125 160.734375 C 257.746094 159.738281 257.652344 158.75 257.5 157.765625 C 257.347656 156.777344 257.136719 155.808594 256.867188 154.847656 C 256.601562 153.886719 256.277344 152.945312 255.898438 152.023438 C 255.519531 151.101562 255.089844 150.207031 254.605469 149.335938 C 254.121094 148.464844 253.585938 147.625 253 146.816406 C 252.417969 146.011719 251.789062 145.242188 251.113281 144.507812 C 250.4375 143.773438 249.722656 143.082031 248.964844 142.433594 C 248.207031 141.785156 247.417969 141.183594 246.589844 140.628906 C 245.761719 140.074219 244.902344 139.570312 244.015625 139.117188 C 243.128906 138.664062 242.214844 138.265625 241.28125 137.921875 C 240.347656 137.574219 239.394531 137.285156 238.425781 137.054688 C 237.457031 136.820312 236.476562 136.644531 235.488281 136.527344 C 234.5 136.410156 233.503906 136.351562 232.507812 136.355469 L 212.777344 136.355469 L 212.777344 116.59375 C 212.765625 115.773438 212.714844 114.957031 212.621094 114.140625 C 212.53125 113.328125 212.398438 112.519531 212.226562 111.714844 C 212.058594 110.914062 211.847656 110.121094 211.601562 109.339844 C 211.351562 108.558594 211.066406 107.789062 210.746094 107.035156 C 210.421875 106.28125 210.066406 105.546875 209.671875 104.828125 C 209.277344 104.105469 208.847656 103.410156 208.386719 102.730469 C 207.925781 102.054688 207.429688 101.398438 206.90625 100.769531 C 206.378906 100.140625 205.824219 99.539062 205.238281 98.960938 C 204.65625 98.386719 204.042969 97.839844 203.40625 97.324219 C 202.769531 96.808594 202.109375 96.324219 201.425781 95.875 C 200.738281 95.421875 200.035156 95.003906 199.308594 94.621094 C 198.585938 94.238281 197.84375 93.890625 197.082031 93.578125 C 196.324219 93.269531 195.550781 92.996094 194.765625 92.757812 C 193.980469 92.523438 193.1875 92.328125 192.382812 92.167969 C 191.578125 92.007812 190.765625 91.890625 189.949219 91.8125 C 189.132812 91.730469 188.316406 91.691406 187.496094 91.691406 C 186.675781 91.691406 185.855469 91.730469 185.039062 91.8125 C 184.222656 91.890625 183.414062 92.007812 182.609375 92.167969 C 181.804688 92.328125 181.007812 92.523438 180.222656 92.757812 C 179.4375 92.996094 178.664062 93.269531 177.90625 93.578125 C 177.148438 93.890625 176.40625 94.238281 175.679688 94.621094 C 174.957031 95.003906 174.25 95.421875 173.566406 95.875 C 172.882812 96.324219 172.21875 96.808594 171.582031 97.324219 C 170.945312 97.839844 170.335938 98.386719 169.75 98.960938 C 169.167969 99.539062 168.609375 100.140625 168.085938 100.769531 C 167.558594 101.398438 167.066406 102.054688 166.605469 102.730469 C 166.140625 103.410156 165.714844 104.105469 165.320312 104.828125 C 164.925781 105.546875 164.566406 106.28125 164.246094 107.035156 C 163.921875 107.789062 163.636719 108.558594 163.390625 109.339844 C 163.140625 110.121094 162.933594 110.914062 162.761719 111.714844 C 162.589844 112.519531 162.460938 113.328125 162.367188 114.140625 C 162.277344 114.957031 162.222656 115.773438 162.210938 116.59375 L 162.210938 117.0625 C 165.183594 124.308594 166.882812 135.671875 164.597656 141.21875 Z M 164.597656 141.21875 " fill-opacity="1" fill-rule="nonzero"/></g><path fill="#ffffff" d="M 125.1875 128.246094 C 125.667969 131.886719 129.375 138.394531 133.808594 143.390625 C 135.628906 145.441406 138.339844 148.078125 140.890625 149.019531 C 143.234375 149.820312 145.628906 150.042969 148.078125 149.683594 L 149.355469 152.59375 C 149.546875 153.03125 149.828125 153.398438 150.207031 153.691406 C 150.585938 153.984375 151.007812 154.171875 151.480469 154.25 L 151.613281 154.675781 L 152.953125 154.089844 C 153.089844 154.46875 153.230469 154.8125 153.375 155.144531 C 154.261719 157.183594 155.445312 159.035156 156.921875 160.695312 C 159.519531 163.566406 162.648438 165.628906 166.304688 166.890625 C 171.515625 168.757812 175.886719 168.136719 179.757812 167.582031 C 186.375 166.632812 190.75 166.007812 196.761719 178.695312 C 200.21875 186.011719 204.792969 192.671875 209.617188 197.464844 C 215.355469 203.152344 221.445312 206.203125 227.238281 206.355469 C 235.835938 206.519531 243.394531 200.617188 249.6875 188.734375 C 253.96875 180.671875 255.035156 175.238281 253.03125 171.695312 C 250.550781 167.292969 244.4375 166.949219 237.355469 166.546875 C 231.960938 166.242188 225.867188 165.898438 221.046875 163.632812 C 221.234375 163.292969 221.402344 162.941406 221.546875 162.578125 C 221.695312 162.214844 221.816406 161.847656 221.917969 161.46875 C 222.019531 161.09375 222.097656 160.710938 222.152344 160.324219 C 222.207031 159.9375 222.238281 159.546875 222.246094 159.160156 C 222.253906 158.769531 222.238281 158.378906 222.195312 157.992188 C 222.15625 157.601562 222.09375 157.21875 222.007812 156.835938 C 221.917969 156.457031 221.808594 156.082031 221.679688 155.714844 C 221.546875 155.347656 221.390625 154.988281 221.214844 154.640625 C 221.039062 154.292969 220.84375 153.957031 220.628906 153.632812 C 220.410156 153.308594 220.175781 152.996094 219.921875 152.699219 C 219.664062 152.40625 219.394531 152.125 219.105469 151.863281 C 218.816406 151.597656 218.511719 151.355469 218.195312 151.128906 C 217.875 150.902344 217.546875 150.695312 217.203125 150.511719 C 216.859375 150.324219 216.503906 150.160156 216.140625 150.019531 C 215.777344 149.875 215.410156 149.753906 215.03125 149.65625 C 214.652344 149.558594 214.269531 149.484375 213.882812 149.433594 C 213.496094 149.382812 213.105469 149.355469 212.714844 149.351562 C 212.328125 149.347656 211.9375 149.367188 211.550781 149.414062 C 211.160156 149.457031 210.777344 149.523438 210.398438 149.613281 C 210.019531 149.703125 209.644531 149.816406 209.277344 149.953125 C 208.914062 150.089844 208.554688 150.246094 208.210938 150.425781 C 207.863281 150.605469 207.527344 150.804688 207.207031 151.023438 C 206.882812 151.242188 206.574219 151.480469 206.28125 151.738281 C 205.988281 151.996094 205.710938 152.269531 205.449219 152.5625 C 205.191406 152.851562 204.949219 153.15625 204.726562 153.476562 C 204.503906 153.796875 204.300781 154.132812 204.117188 154.476562 C 203.933594 154.820312 203.773438 155.175781 203.632812 155.542969 C 203.496094 155.90625 203.378906 156.277344 203.285156 156.65625 C 203.191406 157.035156 203.121094 157.417969 203.070312 157.804688 C 203.023438 158.195312 203 158.582031 203 158.972656 C 203 159.363281 203.023438 159.753906 203.070312 160.140625 C 203.117188 160.527344 203.1875 160.910156 203.28125 161.289062 C 203.378906 161.667969 203.492188 162.039062 203.632812 162.40625 C 203.773438 162.769531 203.933594 163.125 204.113281 163.46875 C 204.296875 163.816406 204.5 164.148438 204.722656 164.46875 C 204.945312 164.789062 205.1875 165.09375 205.445312 165.386719 C 205.707031 165.675781 205.984375 165.953125 206.277344 166.207031 C 206.570312 166.464844 206.878906 166.707031 207.199219 166.925781 C 207.523438 167.144531 207.859375 167.34375 208.203125 167.523438 C 208.550781 167.703125 208.90625 167.859375 209.273438 167.996094 C 209.640625 168.132812 210.011719 168.246094 210.394531 168.335938 C 210.773438 168.425781 211.15625 168.492188 211.542969 168.539062 C 211.933594 168.582031 212.320312 168.601562 212.710938 168.597656 C 213.101562 168.59375 213.492188 168.566406 213.878906 168.515625 C 214.265625 168.464844 214.648438 168.390625 215.023438 168.292969 C 215.402344 168.195312 215.773438 168.078125 216.136719 167.933594 C 216.5 167.792969 216.855469 167.628906 217.199219 167.441406 C 217.542969 167.257812 217.871094 167.050781 218.191406 166.824219 C 224.015625 169.914062 230.972656 170.320312 237.140625 170.65625 C 242.765625 170.972656 248.078125 171.277344 249.449219 173.710938 C 250.28125 175.179688 250.363281 178.636719 246.050781 186.78125 C 240.53125 197.1875 234.222656 202.398438 227.332031 202.222656 C 216.261719 201.980469 205.953125 188.453125 200.5 176.949219 C 193.175781 161.507812 186.058594 162.527344 179.167969 163.511719 C 175.613281 164.015625 171.945312 164.546875 167.703125 163.019531 C 160.988281 160.609375 158.023438 156.058594 156.71875 152.460938 L 157.003906 152.339844 C 157.347656 152.1875 157.648438 151.976562 157.90625 151.707031 C 158.164062 151.4375 158.363281 151.128906 158.5 150.78125 C 158.636719 150.433594 158.703125 150.070312 158.695312 149.699219 C 158.6875 149.324219 158.609375 148.964844 158.460938 148.621094 L 157.179688 145.710938 C 159.109375 144.15625 160.574219 142.25 161.574219 139.984375 C 164.035156 134.070312 160.859375 119.011719 157.007812 114.351562 C 155.261719 112.273438 152.609375 111.074219 149.253906 110.855469 C 148.816406 110.046875 148.203125 109.40625 147.410156 108.933594 C 146.617188 108.464844 145.761719 108.230469 144.839844 108.230469 C 144.425781 108.230469 144.019531 108.28125 143.617188 108.386719 C 143.214844 108.488281 142.832031 108.636719 142.46875 108.835938 C 142.105469 109.03125 141.769531 109.269531 141.464844 109.550781 C 141.160156 109.832031 140.894531 110.144531 140.667969 110.492188 C 140.441406 110.839844 140.261719 111.207031 140.125 111.597656 C 139.992188 111.992188 139.90625 112.394531 139.871094 112.804688 C 139.835938 113.21875 139.851562 113.628906 139.917969 114.039062 C 139.988281 114.445312 140.101562 114.839844 140.269531 115.21875 C 140.464844 115.675781 140.726562 116.089844 141.050781 116.46875 C 141.371094 116.84375 141.742188 117.167969 142.160156 117.433594 C 142.582031 117.699219 143.027344 117.898438 143.507812 118.035156 C 143.984375 118.167969 144.472656 118.226562 144.96875 118.214844 C 145.464844 118.203125 145.949219 118.121094 146.417969 117.964844 C 146.890625 117.808594 147.328125 117.589844 147.734375 117.304688 C 148.140625 117.015625 148.496094 116.679688 148.800781 116.289062 C 149.105469 115.894531 149.347656 115.46875 149.523438 115.003906 C 151.398438 115.195312 152.808594 115.8125 153.730469 116.851562 L 153.824219 116.960938 C 155.1875 118.605469 156.6875 122.820312 157.5625 127.445312 C 158.4375 132.074219 158.523438 136.503906 157.753906 138.351562 C 156.351562 141.734375 152.511719 144.007812 151.316406 144.65625 C 150.019531 145.101562 145.761719 146.367188 142.316406 145.097656 C 140.441406 144.410156 137.28125 141.375 134.449219 137.523438 C 131.617188 133.675781 129.566406 129.765625 129.289062 127.621094 C 129.09375 126.207031 129.597656 124.710938 130.773438 123.136719 C 131.15625 123.289062 131.550781 123.394531 131.960938 123.449219 C 132.367188 123.503906 132.777344 123.507812 133.1875 123.460938 C 133.59375 123.417969 133.992188 123.320312 134.378906 123.175781 C 134.765625 123.03125 135.128906 122.84375 135.46875 122.609375 C 135.808594 122.375 136.113281 122.105469 136.386719 121.796875 C 136.65625 121.484375 136.886719 121.148438 137.078125 120.78125 C 137.265625 120.414062 137.40625 120.03125 137.5 119.628906 C 137.59375 119.230469 137.636719 118.824219 137.632812 118.410156 C 137.625 118 137.570312 117.59375 137.460938 117.195312 C 137.355469 116.796875 137.203125 116.417969 137.003906 116.058594 C 136.800781 115.699219 136.5625 115.367188 136.277344 115.066406 C 135.996094 114.765625 135.683594 114.503906 135.335938 114.28125 C 134.988281 114.058594 134.621094 113.882812 134.230469 113.75 C 133.839844 113.617188 133.441406 113.535156 133.027344 113.5 C 132.617188 113.46875 132.210938 113.488281 131.804688 113.554688 C 131.398438 113.621094 131.003906 113.738281 130.628906 113.902344 C 130.339844 114.027344 130.0625 114.179688 129.800781 114.359375 C 129.542969 114.535156 129.300781 114.734375 129.078125 114.957031 C 128.855469 115.179688 128.65625 115.421875 128.476562 115.683594 C 128.300781 115.945312 128.148438 116.21875 128.023438 116.507812 C 127.898438 116.796875 127.800781 117.097656 127.730469 117.402344 C 127.664062 117.710938 127.621094 118.023438 127.613281 118.335938 C 127.601562 118.652344 127.621094 118.964844 127.667969 119.277344 C 127.71875 119.589844 127.796875 119.890625 127.902344 120.1875 C 125.769531 122.792969 124.832031 125.570312 125.1875 128.246094 Z M 125.1875 128.246094 " fill-opacity="1" fill-rule="nonzero"/><g fill="#ffffff" fill-opacity="1"><g transform="translate(52.786867, 275.752071)"><g><path d="M 10.796875 0 L 1.546875 0 L 1.546875 -24.015625 L 10.703125 -24.015625 C 13.171875 -24.015625 15.304688 -23.535156 17.109375 -22.578125 C 18.910156 -21.628906 20.300781 -20.253906 21.28125 -18.453125 C 22.257812 -16.660156 22.75 -14.515625 22.75 -12.015625 C 22.75 -9.515625 22.257812 -7.363281 21.28125 -5.5625 C 20.3125 -3.769531 18.929688 -2.394531 17.140625 -1.4375 C 15.347656 -0.476562 13.234375 0 10.796875 0 Z M 8.0625 -5.53125 L 10.5625 -5.53125 C 11.75 -5.53125 12.757812 -5.722656 13.59375 -6.109375 C 14.4375 -6.492188 15.078125 -7.15625 15.515625 -8.09375 C 15.960938 -9.03125 16.1875 -10.335938 16.1875 -12.015625 C 16.1875 -13.679688 15.960938 -14.984375 15.515625 -15.921875 C 15.066406 -16.867188 14.410156 -17.53125 13.546875 -17.90625 C 12.679688 -18.289062 11.625 -18.484375 10.375 -18.484375 L 8.0625 -18.484375 Z M 8.0625 -5.53125 "/></g></g></g><g fill="#ffffff" fill-opacity="1"><g transform="translate(75.802405, 275.752071)"><g><path d="M 10.328125 0.328125 C 8.367188 0.328125 6.691406 -0.0546875 5.296875 -0.828125 C 3.910156 -1.609375 2.84375 -2.695312 2.09375 -4.09375 C 1.351562 -5.488281 0.984375 -7.113281 0.984375 -8.96875 C 0.984375 -10.8125 1.351562 -12.429688 2.09375 -13.828125 C 2.84375 -15.222656 3.910156 -16.304688 5.296875 -17.078125 C 6.691406 -17.859375 8.367188 -18.25 10.328125 -18.25 C 12.273438 -18.25 13.945312 -17.859375 15.34375 -17.078125 C 16.738281 -16.304688 17.804688 -15.222656 18.546875 -13.828125 C 19.285156 -12.429688 19.65625 -10.8125 19.65625 -8.96875 C 19.65625 -7.113281 19.285156 -5.488281 18.546875 -4.09375 C 17.804688 -2.695312 16.738281 -1.609375 15.34375 -0.828125 C 13.945312 -0.0546875 12.273438 0.328125 10.328125 0.328125 Z M 10.375 -4.453125 C 10.914062 -4.453125 11.382812 -4.632812 11.78125 -5 C 12.1875 -5.375 12.5 -5.898438 12.71875 -6.578125 C 12.9375 -7.253906 13.046875 -8.066406 13.046875 -9.015625 C 13.046875 -9.953125 12.9375 -10.757812 12.71875 -11.4375 C 12.5 -12.113281 12.1875 -12.632812 11.78125 -13 C 11.382812 -13.375 10.914062 -13.5625 10.375 -13.5625 C 9.789062 -13.5625 9.289062 -13.375 8.875 -13 C 8.46875 -12.632812 8.148438 -12.113281 7.921875 -11.4375 C 7.703125 -10.757812 7.59375 -9.953125 7.59375 -9.015625 C 7.59375 -8.066406 7.703125 -7.253906 7.921875 -6.578125 C 8.148438 -5.898438 8.46875 -5.375 8.875 -5 C 9.289062 -4.632812 9.789062 -4.453125 10.375 -4.453125 Z M 10.375 -4.453125 "/></g></g></g><g fill="#ffffff" fill-opacity="1"><g transform="translate(95.252891, 275.752071)"><g><path d="M 10.328125 0.328125 C 8.367188 0.328125 6.691406 -0.0546875 5.296875 -0.828125 C 3.910156 -1.609375 2.84375 -2.695312 2.09375 -4.09375 C 1.351562 -5.488281 0.984375 -7.113281 0.984375 -8.96875 C 0.984375 -10.8125 1.351562 -12.429688 2.09375 -13.828125 C 2.84375 -15.222656 3.910156 -16.304688 5.296875 -17.078125 C 6.691406 -17.859375 8.367188 -18.25 10.328125 -18.25 C 12.085938 -18.25 13.613281 -17.929688 14.90625 -17.296875 C 16.207031 -16.660156 17.210938 -15.757812 17.921875 -14.59375 C 18.628906 -13.4375 18.988281 -12.078125 19 -10.515625 L 13 -10.515625 C 12.914062 -11.453125 12.644531 -12.171875 12.1875 -12.671875 C 11.726562 -13.171875 11.140625 -13.421875 10.421875 -13.421875 C 9.859375 -13.421875 9.363281 -13.257812 8.9375 -12.9375 C 8.519531 -12.613281 8.191406 -12.125 7.953125 -11.46875 C 7.710938 -10.8125 7.59375 -9.992188 7.59375 -9.015625 C 7.59375 -8.023438 7.710938 -7.203125 7.953125 -6.546875 C 8.191406 -5.898438 8.519531 -5.410156 8.9375 -5.078125 C 9.363281 -4.753906 9.859375 -4.59375 10.421875 -4.59375 C 10.890625 -4.59375 11.304688 -4.703125 11.671875 -4.921875 C 12.046875 -5.148438 12.347656 -5.476562 12.578125 -5.90625 C 12.804688 -6.34375 12.945312 -6.875 13 -7.5 L 19 -7.5 C 18.976562 -5.914062 18.613281 -4.535156 17.90625 -3.359375 C 17.207031 -2.179688 16.210938 -1.269531 14.921875 -0.625 C 13.640625 0.0078125 12.109375 0.328125 10.328125 0.328125 Z M 10.328125 0.328125 "/></g></g></g><g fill="#ffffff" fill-opacity="1"><g transform="translate(114.093556, 275.752071)"><g><path d="M 7.78125 0 L 0.75 0 L 8.6875 -24.015625 L 17.59375 -24.015625 L 25.53125 0 L 18.484375 0 L 13.234375 -17.40625 L 13.046875 -17.40625 Z M 6.46875 -9.484375 L 19.703125 -9.484375 L 19.703125 -4.59375 L 6.46875 -4.59375 Z M 6.46875 -9.484375 "/></g></g></g><g fill="#ffffff" fill-opacity="1"><g transform="translate(139.173069, 275.752071)"><g><path d="M 1.640625 6.75 L 1.640625 -18.015625 L 8.0625 -18.015625 L 8.0625 -14.875 L 8.21875 -14.875 C 8.445312 -15.476562 8.785156 -16.035156 9.234375 -16.546875 C 9.691406 -17.066406 10.253906 -17.476562 10.921875 -17.78125 C 11.597656 -18.09375 12.382812 -18.25 13.28125 -18.25 C 14.46875 -18.25 15.597656 -17.929688 16.671875 -17.296875 C 17.742188 -16.660156 18.617188 -15.660156 19.296875 -14.296875 C 19.972656 -12.941406 20.3125 -11.179688 20.3125 -9.015625 C 20.3125 -6.929688 19.988281 -5.203125 19.34375 -3.828125 C 18.695312 -2.460938 17.835938 -1.441406 16.765625 -0.765625 C 15.691406 -0.0976562 14.515625 0.234375 13.234375 0.234375 C 12.390625 0.234375 11.632812 0.0976562 10.96875 -0.171875 C 10.3125 -0.453125 9.75 -0.832031 9.28125 -1.3125 C 8.820312 -1.800781 8.46875 -2.347656 8.21875 -2.953125 L 8.109375 -2.953125 L 8.109375 6.75 Z M 7.96875 -9.015625 C 7.96875 -8.128906 8.082031 -7.367188 8.3125 -6.734375 C 8.550781 -6.097656 8.882812 -5.601562 9.3125 -5.25 C 9.738281 -4.90625 10.25 -4.734375 10.84375 -4.734375 C 11.4375 -4.734375 11.941406 -4.90625 12.359375 -5.25 C 12.773438 -5.59375 13.09375 -6.082031 13.3125 -6.71875 C 13.539062 -7.351562 13.65625 -8.117188 13.65625 -9.015625 C 13.65625 -9.898438 13.539062 -10.660156 13.3125 -11.296875 C 13.09375 -11.929688 12.773438 -12.421875 12.359375 -12.765625 C 11.941406 -13.109375 11.4375 -13.28125 10.84375 -13.28125 C 10.25 -13.28125 9.738281 -13.109375 9.3125 -12.765625 C 8.882812 -12.421875 8.550781 -11.929688 8.3125 -11.296875 C 8.082031 -10.660156 7.96875 -9.898438 7.96875 -9.015625 Z M 7.96875 -9.015625 "/></g></g></g><g fill="#ffffff" fill-opacity="1"><g transform="translate(159.374087, 275.752071)"><g><path d="M 1.640625 6.75 L 1.640625 -18.015625 L 8.0625 -18.015625 L 8.0625 -14.875 L 8.21875 -14.875 C 8.445312 -15.476562 8.785156 -16.035156 9.234375 -16.546875 C 9.691406 -17.066406 10.253906 -17.476562 10.921875 -17.78125 C 11.597656 -18.09375 12.382812 -18.25 13.28125 -18.25 C 14.46875 -18.25 15.597656 -17.929688 16.671875 -17.296875 C 17.742188 -16.660156 18.617188 -15.660156 19.296875 -14.296875 C 19.972656 -12.941406 20.3125 -11.179688 20.3125 -9.015625 C 20.3125 -6.929688 19.988281 -5.203125 19.34375 -3.828125 C 18.695312 -2.460938 17.835938 -1.441406 16.765625 -0.765625 C 15.691406 -0.0976562 14.515625 0.234375 13.234375 0.234375 C 12.390625 0.234375 11.632812 0.0976562 10.96875 -0.171875 C 10.3125 -0.453125 9.75 -0.832031 9.28125 -1.3125 C 8.820312 -1.800781 8.46875 -2.347656 8.21875 -2.953125 L 8.109375 -2.953125 L 8.109375 6.75 Z M 7.96875 -9.015625 C 7.96875 -8.128906 8.082031 -7.367188 8.3125 -6.734375 C 8.550781 -6.097656 8.882812 -5.601562 9.3125 -5.25 C 9.738281 -4.90625 10.25 -4.734375 10.84375 -4.734375 C 11.4375 -4.734375 11.941406 -4.90625 12.359375 -5.25 C 12.773438 -5.59375 13.09375 -6.082031 13.3125 -6.71875 C 13.539062 -7.351562 13.65625 -8.117188 13.65625 -9.015625 C 13.65625 -9.898438 13.539062 -10.660156 13.3125 -11.296875 C 13.09375 -11.929688 12.773438 -12.421875 12.359375 -12.765625 C 11.941406 -13.109375 11.4375 -13.28125 10.84375 -13.28125 C 10.25 -13.28125 9.738281 -13.109375 9.3125 -12.765625 C 8.882812 -12.421875 8.550781 -11.929688 8.3125 -11.296875 C 8.082031 -10.660156 7.96875 -9.898438 7.96875 -9.015625 Z M 7.96875 -9.015625 "/></g></g></g><g fill="#ffffff" fill-opacity="1"><g transform="translate(179.575105, 275.752071)"><g><path d="M 10.328125 0.328125 C 8.367188 0.328125 6.691406 -0.0546875 5.296875 -0.828125 C 3.910156 -1.609375 2.84375 -2.695312 2.09375 -4.09375 C 1.351562 -5.488281 0.984375 -7.113281 0.984375 -8.96875 C 0.984375 -10.8125 1.351562 -12.429688 2.09375 -13.828125 C 2.84375 -15.222656 3.910156 -16.304688 5.296875 -17.078125 C 6.691406 -17.859375 8.367188 -18.25 10.328125 -18.25 C 12.273438 -18.25 13.945312 -17.859375 15.34375 -17.078125 C 16.738281 -16.304688 17.804688 -15.222656 18.546875 -13.828125 C 19.285156 -12.429688 19.65625 -10.8125 19.65625 -8.96875 C 19.65625 -7.113281 19.285156 -5.488281 18.546875 -4.09375 C 17.804688 -2.695312 16.738281 -1.609375 15.34375 -0.828125 C 13.945312 -0.0546875 12.273438 0.328125 10.328125 0.328125 Z M 10.375 -4.453125 C 10.914062 -4.453125 11.382812 -4.632812 11.78125 -5 C 12.1875 -5.375 12.5 -5.898438 12.71875 -6.578125 C 12.9375 -7.253906 13.046875 -8.066406 13.046875 -9.015625 C 13.046875 -9.953125 12.9375 -10.757812 12.71875 -11.4375 C 12.5 -12.113281 12.1875 -12.632812 11.78125 -13 C 11.382812 -13.375 10.914062 -13.5625 10.375 -13.5625 C 9.789062 -13.5625 9.289062 -13.375 8.875 -13 C 8.46875 -12.632812 8.148438 -12.113281 7.921875 -11.4375 C 7.703125 -10.757812 7.59375 -9.953125 7.59375 -9.015625 C 7.59375 -8.066406 7.703125 -7.253906 7.921875 -6.578125 C 8.148438 -5.898438 8.46875 -5.375 8.875 -5 C 9.289062 -4.632812 9.789062 -4.453125 10.375 -4.453125 Z M 10.375 -4.453125 "/></g></g></g><g fill="#ffffff" fill-opacity="1"><g transform="translate(199.025596, 275.752071)"><g><path d="M 1.640625 0 L 1.640625 -18.015625 L 8.109375 -18.015625 L 8.109375 0 Z M 4.890625 -19.890625 C 4.003906 -19.890625 3.25 -20.175781 2.625 -20.75 C 2 -21.332031 1.6875 -22.03125 1.6875 -22.84375 C 1.6875 -23.65625 2 -24.351562 2.625 -24.9375 C 3.25 -25.519531 4 -25.8125 4.875 -25.8125 C 5.757812 -25.8125 6.507812 -25.519531 7.125 -24.9375 C 7.75 -24.351562 8.0625 -23.65625 8.0625 -22.84375 C 8.0625 -22.03125 7.75 -21.332031 7.125 -20.75 C 6.507812 -20.175781 5.765625 -19.890625 4.890625 -19.890625 Z M 4.890625 -19.890625 "/></g></g></g><g fill="#ffffff" fill-opacity="1"><g transform="translate(207.593283, 275.752071)"><g><path d="M 8.109375 -10.140625 L 8.109375 0 L 1.640625 0 L 1.640625 -18.015625 L 7.78125 -18.015625 L 7.78125 -14.59375 L 7.96875 -14.59375 C 8.363281 -15.726562 9.054688 -16.617188 10.046875 -17.265625 C 11.035156 -17.921875 12.191406 -18.25 13.515625 -18.25 C 14.785156 -18.25 15.890625 -17.957031 16.828125 -17.375 C 17.773438 -16.789062 18.507812 -15.988281 19.03125 -14.96875 C 19.550781 -13.957031 19.804688 -12.800781 19.796875 -11.5 L 19.796875 0 L 13.328125 0 L 13.328125 -10.140625 C 13.335938 -11.023438 13.113281 -11.722656 12.65625 -12.234375 C 12.195312 -12.742188 11.5625 -13 10.75 -13 C 10.21875 -13 9.753906 -12.882812 9.359375 -12.65625 C 8.960938 -12.425781 8.65625 -12.097656 8.4375 -11.671875 C 8.226562 -11.242188 8.117188 -10.734375 8.109375 -10.140625 Z M 8.109375 -10.140625 "/></g></g></g><g fill="#ffffff" fill-opacity="1"><g transform="translate(227.747404, 275.752071)"><g><path d="M 12.390625 -18.015625 L 12.390625 -13.328125 L 0.515625 -13.328125 L 0.515625 -18.015625 Z M 2.8125 -22.328125 L 9.296875 -22.328125 L 9.296875 -5.796875 C 9.296875 -5.546875 9.335938 -5.335938 9.421875 -5.171875 C 9.503906 -5.003906 9.632812 -4.878906 9.8125 -4.796875 C 10 -4.710938 10.234375 -4.671875 10.515625 -4.671875 C 10.703125 -4.671875 10.925781 -4.691406 11.1875 -4.734375 C 11.457031 -4.785156 11.65625 -4.828125 11.78125 -4.859375 L 12.71875 -0.3125 C 12.425781 -0.21875 12.007812 -0.109375 11.46875 0.015625 C 10.9375 0.140625 10.304688 0.222656 9.578125 0.265625 C 8.085938 0.335938 6.835938 0.179688 5.828125 -0.203125 C 4.816406 -0.585938 4.054688 -1.195312 3.546875 -2.03125 C 3.046875 -2.875 2.800781 -3.925781 2.8125 -5.1875 Z M 2.8125 -22.328125 "/></g></g></g><g fill="#ffffff" fill-opacity="1"><g transform="translate(239.927052, 275.752071)"><g><path d="M 1.640625 0 L 1.640625 -18.015625 L 7.78125 -18.015625 L 7.78125 -14.59375 L 7.96875 -14.59375 C 8.351562 -15.71875 9 -16.609375 9.90625 -17.265625 C 10.8125 -17.921875 11.890625 -18.25 13.140625 -18.25 C 14.398438 -18.25 15.488281 -17.914062 16.40625 -17.25 C 17.320312 -16.582031 17.875 -15.695312 18.0625 -14.59375 L 18.25 -14.59375 C 18.550781 -15.695312 19.195312 -16.582031 20.1875 -17.25 C 21.1875 -17.914062 22.351562 -18.25 23.6875 -18.25 C 25.414062 -18.25 26.816406 -17.691406 27.890625 -16.578125 C 28.972656 -15.472656 29.515625 -14 29.515625 -12.15625 L 29.515625 0 L 23.03125 0 L 23.03125 -10.515625 C 23.03125 -11.296875 22.832031 -11.910156 22.4375 -12.359375 C 22.039062 -12.816406 21.503906 -13.046875 20.828125 -13.046875 C 20.160156 -13.046875 19.632812 -12.816406 19.25 -12.359375 C 18.863281 -11.910156 18.671875 -11.296875 18.671875 -10.515625 L 18.671875 0 L 12.484375 0 L 12.484375 -10.515625 C 12.484375 -11.296875 12.28125 -11.910156 11.875 -12.359375 C 11.476562 -12.816406 10.945312 -13.046875 10.28125 -13.046875 C 9.832031 -13.046875 9.445312 -12.941406 9.125 -12.734375 C 8.800781 -12.535156 8.550781 -12.242188 8.375 -11.859375 C 8.195312 -11.484375 8.109375 -11.035156 8.109375 -10.515625 L 8.109375 0 Z M 1.640625 0 "/></g></g></g><g fill="#ffffff" fill-opacity="1"><g transform="translate(269.791255, 275.752071)"><g><path d="M 10.28125 0.328125 C 8.351562 0.328125 6.691406 -0.0390625 5.296875 -0.78125 C 3.910156 -1.519531 2.84375 -2.582031 2.09375 -3.96875 C 1.351562 -5.351562 0.984375 -7.019531 0.984375 -8.96875 C 0.984375 -10.820312 1.359375 -12.441406 2.109375 -13.828125 C 2.859375 -15.222656 3.914062 -16.304688 5.28125 -17.078125 C 6.65625 -17.859375 8.273438 -18.25 10.140625 -18.25 C 11.492188 -18.25 12.722656 -18.035156 13.828125 -17.609375 C 14.929688 -17.191406 15.875 -16.582031 16.65625 -15.78125 C 17.4375 -14.976562 18.035156 -14.003906 18.453125 -12.859375 C 18.878906 -11.722656 19.09375 -10.441406 19.09375 -9.015625 L 19.09375 -7.5 L 3 -7.5 L 3 -11.078125 L 13.140625 -11.078125 C 13.128906 -11.585938 12.992188 -12.039062 12.734375 -12.4375 C 12.484375 -12.832031 12.144531 -13.140625 11.71875 -13.359375 C 11.289062 -13.585938 10.8125 -13.703125 10.28125 -13.703125 C 9.75 -13.703125 9.265625 -13.585938 8.828125 -13.359375 C 8.390625 -13.140625 8.039062 -12.832031 7.78125 -12.4375 C 7.519531 -12.050781 7.378906 -11.597656 7.359375 -11.078125 L 7.359375 -7.21875 C 7.359375 -6.644531 7.476562 -6.128906 7.71875 -5.671875 C 7.96875 -5.222656 8.316406 -4.867188 8.765625 -4.609375 C 9.222656 -4.347656 9.773438 -4.21875 10.421875 -4.21875 C 10.859375 -4.21875 11.265625 -4.28125 11.640625 -4.40625 C 12.015625 -4.53125 12.332031 -4.710938 12.59375 -4.953125 C 12.863281 -5.191406 13.0625 -5.476562 13.1875 -5.8125 L 19.09375 -5.8125 C 18.894531 -4.5625 18.414062 -3.476562 17.65625 -2.5625 C 16.894531 -1.644531 15.890625 -0.929688 14.640625 -0.421875 C 13.398438 0.078125 11.945312 0.328125 10.28125 0.328125 Z M 10.28125 0.328125 "/></g></g></g><g fill="#ffffff" fill-opacity="1"><g transform="translate(288.678834, 275.752071)"><g><path d="M 8.109375 -10.140625 L 8.109375 0 L 1.640625 0 L 1.640625 -18.015625 L 7.78125 -18.015625 L 7.78125 -14.59375 L 7.96875 -14.59375 C 8.363281 -15.726562 9.054688 -16.617188 10.046875 -17.265625 C 11.035156 -17.921875 12.191406 -18.25 13.515625 -18.25 C 14.785156 -18.25 15.890625 -17.957031 16.828125 -17.375 C 17.773438 -16.789062 18.507812 -15.988281 19.03125 -14.96875 C 19.550781 -13.957031 19.804688 -12.800781 19.796875 -11.5 L 19.796875 0 L 13.328125 0 L 13.328125 -10.140625 C 13.335938 -11.023438 13.113281 -11.722656 12.65625 -12.234375 C 12.195312 -12.742188 11.5625 -13 10.75 -13 C 10.21875 -13 9.753906 -12.882812 9.359375 -12.65625 C 8.960938 -12.425781 8.65625 -12.097656 8.4375 -11.671875 C 8.226562 -11.242188 8.117188 -10.734375 8.109375 -10.140625 Z M 8.109375 -10.140625 "/></g></g></g><g fill="#ffffff" fill-opacity="1"><g transform="translate(308.832954, 275.752071)"><g><path d="M 12.390625 -18.015625 L 12.390625 -13.328125 L 0.515625 -13.328125 L 0.515625 -18.015625 Z M 2.8125 -22.328125 L 9.296875 -22.328125 L 9.296875 -5.796875 C 9.296875 -5.546875 9.335938 -5.335938 9.421875 -5.171875 C 9.503906 -5.003906 9.632812 -4.878906 9.8125 -4.796875 C 10 -4.710938 10.234375 -4.671875 10.515625 -4.671875 C 10.703125 -4.671875 10.925781 -4.691406 11.1875 -4.734375 C 11.457031 -4.785156 11.65625 -4.828125 11.78125 -4.859375 L 12.71875 -0.3125 C 12.425781 -0.21875 12.007812 -0.109375 11.46875 0.015625 C 10.9375 0.140625 10.304688 0.222656 9.578125 0.265625 C 8.085938 0.335938 6.835938 0.179688 5.828125 -0.203125 C 4.816406 -0.585938 4.054688 -1.195312 3.546875 -2.03125 C 3.046875 -2.875 2.800781 -3.925781 2.8125 -5.1875 Z M 2.8125 -22.328125 "/></g></g></g></svg>